# xmcd CD database file
#
# Track frame offsets:
#	182
#	42002
#	101080
#	141475
#	199432
#	247100
#
# Disc length: 4079 seconds
#
# Revision: 0
# Processed by: cddbd v1.5.1PL0 Copyright (c) Steve Scherf et al.
# Submitted via: CDex 1.51
#
DISCID=5b0fed06
DTITLE=James Blood Ulmer - Wings (Zürich, 4-11-1988)
DYEAR=1988
DGENRE=Jazz
TTITLE0=Lady Blue
TTITLE1=After Dark
TTITLE2=Black Sheep
TTITLE3=Wing - Drum Solo
TTITLE4=Show Me Your Love America
TTITLE5=I Belong In The USA
EXTD=YEAR: 1988
EXTT0=
EXTT1=
EXTT2=
EXTT3=
EXTT4=
EXTT5=
PLAYORDER=
